<?xml version="1.0" encoding="utf-8"?>
<!-- Generator: Adobe Illustrator 24.0.2, SVG Export Plug-In . SVG Version: 6.00 Build 0)  -->
<svg version="1.1" id="Layer_1" xmlns="http://www.w3.org/2000/svg" xmlns:xlink="http://www.w3.org/1999/xlink" x="0px" y="0px"
	 viewBox="0 0 32 32" style="enable-background:new 0 0 32 32;" xml:space="preserve">
<style type="text/css">
	.st0{fill:#39374D;}
	.st1{fill:#FFFFFF;}
</style>
<g>
	<path class="st0" d="M4.19,12.2C4.19,5.68,9.48,0.4,16,0.4c6.52,0,11.81,5.29,11.81,11.81c0,4.76-1.66,6.09-10.59,19.04
		c-0.59,0.85-1.84,0.85-2.43,0C5.85,18.29,4.19,16.96,4.19,12.2z"/>
</g>
<g>
	<path class="st1" d="M11.16,7.66c0.37-0.52,1-0.84,1.63-0.84c0.63-0.01,1.24,0.3,1.62,0.8c0.52,0.7,1.03,1.41,1.54,2.11
		c0.02,0.03,0.07,0.03,0.09,0c0.49-0.67,0.97-1.33,1.46-2c0.16-0.23,0.36-0.44,0.59-0.59c0.51-0.34,1.19-0.42,1.77-0.21
		c0.39,0.13,0.73,0.39,0.97,0.73c1.07,1.46,2.13,2.93,3.2,4.39c0.36,0.49,0.47,1.14,0.31,1.72c-0.18,0.66-0.72,1.21-1.38,1.4
		c-0.77,0.24-1.67-0.05-2.17-0.69c-0.45-0.6-0.89-1.21-1.33-1.82c-0.45-0.61-0.89-1.22-1.34-1.84c-0.1-0.15-0.25-0.28-0.44-0.3
		c-0.27-0.04-0.55,0.15-0.61,0.42c-0.04,0.16,0,0.33,0.09,0.47c0.19,0.28,0.41,0.54,0.58,0.83c0.24,0.42,0.31,0.92,0.22,1.39
		c0,0.02-0.01,0.04-0.01,0.07c-0.12,0.51-0.44,0.96-0.88,1.24c-0.15,0.09-0.3,0.17-0.47,0.22c-0.63,0.2-1.35,0.08-1.86-0.33
		c-0.27-0.2-0.45-0.49-0.65-0.76c-0.34-0.47-0.68-0.94-1.02-1.4c-0.41-0.57-0.83-1.13-1.24-1.71c-0.14-0.21-0.32-0.44-0.6-0.43
		c-0.39-0.02-0.69,0.44-0.51,0.79c0.18,0.32,0.43,0.58,0.62,0.89c0.26,0.43,0.34,0.95,0.24,1.44c0,0,0,0,0,0.01
		c-0.11,0.53-0.44,0.99-0.89,1.28c-0.15,0.1-0.32,0.18-0.5,0.23c-0.61,0.19-1.31,0.07-1.82-0.32c-0.48-0.36-0.79-0.94-0.8-1.54
		c-0.02-0.45,0.13-0.91,0.4-1.27C9.04,10.58,10.1,9.12,11.16,7.66"/>
</g>
</svg>
